<svg width="80" height="80" viewBox="0 0 80 80" fill="none" xmlns="http://www.w3.org/2000/svg">
<circle cx="40" cy="40" r="38.5" stroke="#00D8F0" stroke-opacity="0.42" stroke-width="3"/>
<path d="M38.7471 39.5518V40.6748C38.7471 42.0094 38.5802 43.2057 38.2466 44.2637C37.9129 45.3216 37.4328 46.2209 36.8062 46.9614C36.1795 47.702 35.4268 48.2676 34.5479 48.6582C33.6771 49.0488 32.7005 49.2441 31.6182 49.2441C30.5684 49.2441 29.604 49.0488 28.7251 48.6582C27.8543 48.2676 27.0975 47.702 26.4546 46.9614C25.8198 46.2209 25.3275 45.3216 24.9775 44.2637C24.6276 43.2057 24.4526 42.0094 24.4526 40.6748V39.5518C24.4526 38.2171 24.6235 37.0249 24.9653 35.9751C25.3153 34.9172 25.8076 34.0179 26.4424 33.2773C27.0771 32.5286 27.8299 31.959 28.7007 31.5684C29.5796 31.1777 30.5439 30.9824 31.5938 30.9824C32.6761 30.9824 33.6527 31.1777 34.5234 31.5684C35.4023 31.959 36.1551 32.5286 36.7817 33.2773C37.4165 34.0179 37.9007 34.9172 38.2344 35.9751C38.5762 37.0249 38.7471 38.2171 38.7471 39.5518ZM36.4155 40.6748V39.5273C36.4155 38.4694 36.3057 37.5335 36.0859 36.7197C35.8743 35.9059 35.561 35.2223 35.146 34.6689C34.731 34.1156 34.2223 33.6965 33.6201 33.4116C33.026 33.1268 32.3506 32.9844 31.5938 32.9844C30.8613 32.9844 30.1981 33.1268 29.604 33.4116C29.0181 33.6965 28.5135 34.1156 28.0903 34.6689C27.6753 35.2223 27.3538 35.9059 27.126 36.7197C26.8981 37.5335 26.7842 38.4694 26.7842 39.5273V40.6748C26.7842 41.7409 26.8981 42.6849 27.126 43.5068C27.3538 44.3206 27.6794 45.0083 28.1025 45.5698C28.5339 46.1232 29.0425 46.5423 29.6284 46.8271C30.2225 47.112 30.8857 47.2544 31.6182 47.2544C32.3831 47.2544 33.0627 47.112 33.6567 46.8271C34.2508 46.5423 34.7513 46.1232 35.1582 45.5698C35.5732 45.0083 35.8866 44.3206 36.0981 43.5068C36.3097 42.6849 36.4155 41.7409 36.4155 40.6748ZM42.2749 31.2266H48.1587C49.4933 31.2266 50.6204 31.43 51.54 31.8369C52.4678 32.2438 53.1717 32.846 53.6519 33.6436C54.1401 34.4329 54.3843 35.4054 54.3843 36.561C54.3843 37.3748 54.2174 38.1195 53.8838 38.7949C53.5583 39.4622 53.0863 40.0319 52.4678 40.5039C51.8574 40.9678 51.125 41.3136 50.2705 41.5415L49.6113 41.7979H44.0815L44.0571 39.8813H48.2319C49.0783 39.8813 49.7822 39.7349 50.3438 39.4419C50.9053 39.1408 51.3285 38.738 51.6133 38.2334C51.8981 37.7288 52.0405 37.1714 52.0405 36.561C52.0405 35.8774 51.9062 35.2793 51.6377 34.7666C51.3691 34.2539 50.946 33.8592 50.3682 33.5825C49.7985 33.2977 49.062 33.1553 48.1587 33.1553H44.6309V49H42.2749V31.2266ZM52.6631 49L48.3418 40.9434L50.7954 40.9312L55.1777 48.8535V49H52.6631Z" fill="white"/>
</svg>
